<?xml version="1.0" encoding="UTF-8"?>
<!-- Generator: Adobe Illustrator 27.0.1, SVG Export Plug-In . SVG Version: 6.00 Build 0)  -->
<svg xmlns="http://www.w3.org/2000/svg" xmlns:xlink="http://www.w3.org/1999/xlink" version="1.1" id="Layer_1" x="0px" y="0px" viewBox="0 0 2239.1 2418.4" style="enable-background:new 0 0 2239.1 2418.4;" xml:space="preserve">
<style type="text/css">
	.st0{fill:#197BFB;}
	.st1{fill:#FFFFFF;}
</style>
<g>
	<path class="st0" d="M2087.6,1655.8V762.8c0-69.7-37.1-134-97.4-168.6L1217,147.8c-60.3-34.6-134.5-34.6-194.8,0L248.9,594.2   c-60.3,34.6-97.4,98.9-97.4,168.6v892.9c0,69.7,37.1,134,97.4,168.6l773.3,446.5c60.3,34.6,134.5,34.6,194.8,0l773.3-446.5   C2050.6,1789.2,2087.6,1725,2087.6,1655.8z"></path>
	<g>
		<g>
			<g id="XMLID_00000163035768981293412720000008384524286733569469_">
				<g id="XMLID_00000049188966036446525740000015260904518204041638_">
					<polygon class="st1" points="638,895.8 1120.5,621.4 1602.1,904.2 1785.5,795 1122,405.4 456,784.1      "></polygon>
				</g>
				<g id="XMLID_00000072243996703156570160000017046749500436369540_">
					<polygon class="st1" points="1078.5,1796.7 603.4,1520.8 603.4,973.4 416.5,860.2 416.5,1629.1 1078.5,2012.2      "></polygon>
				</g>
				<g id="XMLID_00000085212341699551428450000005468732138164202632_">
					<polygon class="st1" points="1636.7,976.4 1636.7,1520.8 1160.6,1797.2 1160.6,2013.2 1823.6,1629.1 1823.6,863.7      "></polygon>
				</g>
			</g>
			<g id="XMLID_00000135671193952392258670000009342610617524251578_">
				<circle class="st1" cx="1120.1" cy="873.1" r="140.4"></circle>
			</g>
			<g id="XMLID_00000097480465346365814370000013167703586039462796_">
				<circle class="st1" cx="814.5" cy="1395.7" r="140.4"></circle>
			</g>
			<g id="XMLID_00000102510806670544851300000018234909364669831848_">
				<circle class="st1" cx="1431.5" cy="1400.6" r="140.4"></circle>
			</g>
		</g>
	</g>
</g>
</svg>
