<svg xmlns="http://www.w3.org/2000/svg" width="173" height="53" viewBox="0 0 173 53" fill="none"><g clip-path="url(#clip0_164_9380)"><path d="M7.07412 0.681641H165.848C169.519 0.681641 172.5 3.63456 172.5 7.27147V45.9357C172.5 49.5726 169.519 52.5255 165.848 52.5255H7.07412C3.40306 52.5255 0.422424 49.5726 0.422424 45.9357V7.27147C0.422424 3.63456 3.40306 0.681641 7.07412 0.681641Z" fill="black"></path><path d="M11.105 21.865C8.31337 26.6636 10.0879 33.9466 13.1748 38.3622C14.7154 40.5704 16.276 42.5517 18.4122 42.5517C18.4521 42.5517 18.4928 42.551 18.5341 42.5489C19.5384 42.5093 20.2637 42.2033 20.9649 41.9073C21.7523 41.5745 22.5675 41.2311 23.8449 41.2311C25.1223 41.2311 25.8356 41.5639 26.5852 41.8847C27.3248 42.2019 28.0859 42.5298 29.2114 42.5086C31.6178 42.4641 33.0957 40.3259 34.3995 38.4392C35.7604 36.4699 36.4429 34.5578 36.6726 33.8265L36.6819 33.7975C36.7261 33.6675 36.6633 33.5262 36.5378 33.469C36.5378 33.469 36.5221 33.4619 36.5185 33.4605C36.0949 33.2888 32.3767 31.6544 32.3375 27.2013C32.3011 23.5828 35.1263 21.6672 35.6933 21.3195L35.7197 21.3026C35.781 21.2637 35.8238 21.2015 35.8388 21.1309C35.8531 21.0595 35.8388 20.986 35.7967 20.9259C33.8467 18.0988 30.8575 17.6727 29.6543 17.6218C29.4803 17.6042 29.2998 17.5957 29.1186 17.5957C27.705 17.5957 26.3513 18.1242 25.2629 18.5496C24.5118 18.8429 23.8635 19.0965 23.4163 19.0965C22.9134 19.0965 22.2608 18.84 21.5062 18.5433C20.4955 18.1462 19.3508 17.696 18.139 17.696C18.1097 17.696 18.0819 17.696 18.0541 17.6975C15.2361 17.7384 12.5729 19.3354 11.105 21.865Z" fill="white"></path><path d="M29.6564 9.84104C27.9504 9.90958 25.9027 10.9504 24.6794 12.3707C23.6388 13.5635 22.6239 15.554 22.8913 17.5593C22.9085 17.6851 23.0119 17.7812 23.1388 17.7918C23.2544 17.8003 23.3714 17.8052 23.4883 17.8052C25.1566 17.8052 26.9568 16.8902 28.1865 15.4176C29.4803 13.8631 30.1343 11.8676 29.9368 10.0799C29.9211 9.93926 29.7962 9.83539 29.6564 9.84104Z" fill="white"></path><path d="M49.2913 9.70215H52.5272C53.376 9.70215 54.1299 9.87597 54.7875 10.2229C55.4458 10.5699 55.9579 11.0504 56.3238 11.6637C56.6897 12.277 56.873 12.9737 56.873 13.7524C56.873 14.5311 56.6897 15.2278 56.3238 15.8412C55.9579 16.4545 55.4458 16.935 54.7875 17.2819C54.1292 17.6289 53.376 17.8027 52.5272 17.8027H49.2913V9.70215ZM52.4809 17.2713C53.2362 17.2713 53.9024 17.123 54.4787 16.8255C55.055 16.5287 55.4986 16.1139 55.8103 15.5811C56.122 15.0491 56.2775 14.4393 56.2775 13.7524C56.2775 13.0656 56.1213 12.4565 55.8103 11.9237C55.4986 11.3916 55.055 10.9769 54.4787 10.6794C53.9024 10.3826 53.2362 10.2335 52.4809 10.2335H49.8875V17.2706H52.4809V17.2713Z" fill="white"></path><path d="M59.5771 17.456C59.1135 17.1939 58.7497 16.8293 58.4851 16.3622C58.2205 15.8951 58.0878 15.3687 58.0878 14.7822C58.0878 14.1957 58.2205 13.6693 58.4851 13.2023C58.7497 12.7352 59.1142 12.3713 59.5771 12.1084C60.0407 11.8463 60.5599 11.7148 61.1369 11.7148C61.714 11.7148 62.2332 11.8463 62.6968 12.1084C63.1604 12.3706 63.5242 12.7352 63.7888 13.2023C64.0534 13.6693 64.1861 14.1957 64.1861 14.7822C64.1861 15.3687 64.0534 15.8951 63.7888 16.3622C63.5242 16.8293 63.1597 17.1939 62.6968 17.456C62.2332 17.7182 61.7132 17.8496 61.1369 17.8496C60.5606 17.8496 60.0407 17.7182 59.5771 17.456ZM62.3922 17.0045C62.7624 16.7883 63.0541 16.488 63.2681 16.1015C63.4821 15.7157 63.5891 15.2762 63.5891 14.7822C63.5891 14.2883 63.4821 13.8488 63.2681 13.463C63.0541 13.0772 62.7617 12.7762 62.3922 12.5599C62.0221 12.3437 61.6034 12.2356 61.1362 12.2356C60.6691 12.2356 60.2504 12.3437 59.8802 12.5599C59.51 12.7762 59.2183 13.0772 59.0043 13.463C58.7904 13.8488 58.6834 14.289 58.6834 14.7822C58.6834 15.2754 58.7904 15.7157 59.0043 16.1015C59.2183 16.4873 59.5107 16.7883 59.8802 17.0045C60.2504 17.2207 60.6691 17.3288 61.1362 17.3288C61.6034 17.3288 62.0221 17.2207 62.3922 17.0045Z" fill="white"></path><path d="M74.536 11.7627L72.2229 17.8042H71.6737L69.6174 12.5612L67.5498 17.8042H67.0127L64.6996 11.7627H65.2603L67.293 17.1562L69.3721 11.7627H69.8742L71.9419 17.1442L73.9982 11.7627H74.5353H74.536Z" fill="white"></path><path d="M80.6813 12.3758C81.1249 12.8153 81.3474 13.4484 81.3474 14.2737V17.804H80.7633V14.3204C80.7633 13.6413 80.59 13.1248 80.2433 12.7694C79.8967 12.4147 79.4117 12.2373 78.789 12.2373C78.0722 12.2373 77.5081 12.4493 77.0951 12.874C76.6821 13.2986 76.476 13.8696 76.476 14.5868V17.804H75.8918V11.7625H76.4525V13.0704C76.6629 12.6464 76.976 12.3143 77.3932 12.0748C77.8098 11.8359 78.3026 11.7158 78.8711 11.7158C79.6342 11.7158 80.2376 11.9356 80.682 12.3758H80.6813Z" fill="white"></path><path d="M83.7533 9.21582H84.3374V17.8032H83.7533V9.21582Z" fill="white"></path><path d="M87.6275 17.456C87.1639 17.1939 86.8001 16.8293 86.5355 16.3622C86.2709 15.8951 86.1382 15.3687 86.1382 14.7822C86.1382 14.1957 86.2709 13.6693 86.5355 13.2023C86.8001 12.7352 87.1646 12.3713 87.6275 12.1084C88.0911 11.8463 88.6103 11.7148 89.1874 11.7148C89.7644 11.7148 90.2836 11.8463 90.7472 12.1084C91.2108 12.3706 91.5746 12.7352 91.8399 13.2023C92.1045 13.6693 92.2372 14.1957 92.2372 14.7822C92.2372 15.3687 92.1045 15.8951 91.8399 16.3622C91.5753 16.8293 91.2108 17.1939 90.7472 17.456C90.2836 17.7182 89.7637 17.8496 89.1874 17.8496C88.6111 17.8496 88.0911 17.7182 87.6275 17.456ZM90.4427 17.0045C90.8121 16.7883 91.1046 16.488 91.3185 16.1015C91.5325 15.7157 91.6395 15.2762 91.6395 14.7822C91.6395 14.2883 91.5325 13.8488 91.3185 13.463C91.1046 13.0772 90.8121 12.7762 90.4427 12.5599C90.0725 12.3437 89.6538 12.2356 89.1866 12.2356C88.7195 12.2356 88.3008 12.3437 87.9306 12.5599C87.5604 12.7762 87.2687 13.0772 87.0548 13.463C86.8408 13.8488 86.7338 14.289 86.7338 14.7822C86.7338 15.2754 86.8408 15.7157 87.0548 16.1015C87.2687 16.4873 87.5612 16.7883 87.9306 17.0045C88.3008 17.2207 88.7195 17.3288 89.1866 17.3288C89.6538 17.3288 90.0725 17.2207 90.4427 17.0045Z" fill="white"></path><path d="M97.8195 12.2889C98.2247 12.6712 98.4272 13.2322 98.4272 13.9727V17.8033H97.8666V16.7271C97.6719 17.0818 97.3873 17.3581 97.0136 17.5545C96.6398 17.751 96.1919 17.8499 95.6698 17.8499C94.9923 17.8499 94.4566 17.6916 94.0636 17.375C93.6699 17.0585 93.4738 16.6423 93.4738 16.1251C93.4738 15.6078 93.6549 15.2164 94.0172 14.904C94.3796 14.5917 94.958 14.4356 95.7518 14.4356H97.8431V13.9494C97.8431 13.3862 97.689 12.958 97.3816 12.6648C97.0742 12.3716 96.6241 12.2253 96.0322 12.2253C95.627 12.2253 95.2397 12.2945 94.8696 12.4337C94.4994 12.5729 94.1863 12.7581 93.9288 12.9891L93.6371 12.5722C93.9409 12.3023 94.3068 12.0917 94.7355 11.9412C95.1634 11.7907 95.6113 11.7158 96.0792 11.7158C96.8346 11.7158 97.4151 11.9066 97.8202 12.2889H97.8195ZM97.0428 17.0281C97.3973 16.7963 97.6641 16.4607 97.8431 16.0212V14.8871H95.764C95.1641 14.8871 94.7298 14.9952 94.4616 15.2114C94.1927 15.4276 94.0586 15.7244 94.0586 16.1024C94.0586 16.4805 94.2063 16.8069 94.5023 17.0338C94.7982 17.2613 95.2148 17.375 95.7526 17.375C96.259 17.375 96.6891 17.2592 97.0435 17.0281H97.0428Z" fill="white"></path><path d="M106.265 9.21582V17.8032H105.693V16.3794C105.451 16.85 105.112 17.2125 104.676 17.4676C104.24 17.722 103.746 17.8499 103.193 17.8499C102.64 17.8499 102.11 17.7184 101.651 17.4563C101.191 17.1941 100.831 16.8316 100.57 16.3681C100.309 15.9053 100.179 15.3767 100.179 14.7825C100.179 14.1882 100.309 13.6583 100.57 13.1912C100.831 12.7241 101.191 12.3616 101.651 12.103C102.11 11.8444 102.624 11.7151 103.193 11.7151C103.761 11.7151 104.227 11.8423 104.659 12.0974C105.091 12.3517 105.432 12.7072 105.681 13.1622V9.21582H106.265ZM104.484 17.0048C104.853 16.7885 105.146 16.4882 105.36 16.1017C105.574 15.7159 105.681 15.2764 105.681 14.7825C105.681 14.2886 105.574 13.8491 105.36 13.4632C105.146 13.0774 104.853 12.7764 104.484 12.5602C104.114 12.344 103.695 12.2359 103.228 12.2359C102.761 12.2359 102.342 12.344 101.972 12.5602C101.602 12.7764 101.31 13.0774 101.096 13.4632C100.882 13.8491 100.775 14.2893 100.775 14.7825C100.775 15.2757 100.882 15.7159 101.096 16.1017C101.31 16.4875 101.602 16.7885 101.972 17.0048C102.342 17.221 102.761 17.3291 103.228 17.3291C103.695 17.3291 104.114 17.221 104.484 17.0048Z" fill="white"></path><path d="M112.556 17.456C112.093 17.1939 111.729 16.8293 111.464 16.3622C111.2 15.8951 111.067 15.3687 111.067 14.7822C111.067 14.1957 111.2 13.6693 111.464 13.2023C111.729 12.7352 112.093 12.3713 112.556 12.1084C113.02 11.8463 113.539 11.7148 114.116 11.7148C114.693 11.7148 115.212 11.8463 115.676 12.1084C116.14 12.3706 116.503 12.7352 116.769 13.2023C117.033 13.6693 117.166 14.1957 117.166 14.7822C117.166 15.3687 117.033 15.8951 116.769 16.3622C116.504 16.8293 116.14 17.1939 115.676 17.456C115.212 17.7182 114.692 17.8496 114.116 17.8496C113.54 17.8496 113.02 17.7182 112.556 17.456ZM115.371 17.0045C115.741 16.7883 116.033 16.488 116.247 16.1015C116.461 15.7157 116.568 15.2762 116.568 14.7822C116.568 14.2883 116.461 13.8488 116.247 13.463C116.033 13.0772 115.741 12.7762 115.371 12.5599C115.001 12.3437 114.583 12.2356 114.115 12.2356C113.648 12.2356 113.23 12.3437 112.859 12.5599C112.489 12.7762 112.198 13.0772 111.984 13.463C111.77 13.8488 111.663 14.289 111.663 14.7822C111.663 15.2754 111.77 15.7157 111.984 16.1015C112.198 16.4873 112.49 16.7883 112.859 17.0045C113.23 17.2207 113.648 17.3288 114.115 17.3288C114.583 17.3288 115.001 17.2207 115.371 17.0045Z" fill="white"></path><path d="M123.765 12.3758C124.209 12.8153 124.431 13.4484 124.431 14.2737V17.804H123.847V14.3204C123.847 13.6413 123.674 13.1248 123.327 12.7694C122.981 12.4147 122.496 12.2373 121.873 12.2373C121.156 12.2373 120.592 12.4493 120.179 12.874C119.766 13.2986 119.56 13.8696 119.56 14.5868V17.804H118.976V11.7625H119.536V13.0704C119.747 12.6464 120.06 12.3143 120.477 12.0748C120.894 11.8359 121.387 11.7158 121.955 11.7158C122.718 11.7158 123.322 11.9356 123.766 12.3758H123.765Z" fill="white"></path><path d="M132.865 17.4228C132.717 17.562 132.532 17.668 132.31 17.7408C132.089 17.8143 131.857 17.851 131.615 17.851C131.085 17.851 130.676 17.7062 130.388 17.4171C130.1 17.1281 129.956 16.7247 129.956 16.2074V12.261H128.835V11.7636H129.956V10.4443H130.54V11.7636H132.479V12.261H130.54V16.1502C130.54 16.5438 130.636 16.8427 130.826 17.0469C131.017 17.2511 131.299 17.3536 131.673 17.3536C132.048 17.3536 132.37 17.2419 132.62 17.0179L132.865 17.4228Z" fill="white"></path><path d="M139.279 12.3758C139.723 12.8153 139.945 13.4484 139.945 14.2737V17.8039H139.361V14.3204C139.361 13.6413 139.188 13.1248 138.841 12.7694C138.495 12.4146 138.01 12.2373 137.387 12.2373C136.67 12.2373 136.106 12.4493 135.693 12.8739C135.28 13.2986 135.074 13.8695 135.074 14.5868V17.8039H134.49V9.21582H135.074V13.0237C135.284 12.6068 135.595 12.2853 136.008 12.0571C136.421 11.8296 136.908 11.7158 137.468 11.7158C138.232 11.7158 138.835 11.9356 139.279 12.3758Z" fill="white"></path><path d="M147.515 14.9212H142.27C142.285 15.3918 142.406 15.8108 142.632 16.1768C142.858 16.5435 143.163 16.8269 143.549 17.0276C143.935 17.2282 144.369 17.3286 144.852 17.3286C145.249 17.3286 145.617 17.2572 145.956 17.1145C146.295 16.9717 146.577 16.7612 146.803 16.4835L147.142 16.865C146.877 17.1816 146.544 17.4247 146.143 17.5943C145.743 17.7639 145.308 17.8486 144.841 17.8486C144.233 17.8486 143.692 17.7172 143.217 17.4551C142.742 17.1929 142.37 16.8304 142.101 16.3669C141.833 15.9041 141.698 15.3755 141.698 14.7813C141.698 14.187 141.825 13.6683 142.078 13.2013C142.331 12.7342 142.68 12.3703 143.124 12.1074C143.567 11.8453 144.066 11.7139 144.618 11.7139C145.171 11.7139 145.668 11.8432 146.108 12.1018C146.548 12.3604 146.894 12.7208 147.148 13.1836C147.401 13.6464 147.527 14.1715 147.527 14.7579L147.516 14.9197L147.515 14.9212ZM143.461 12.5081C143.118 12.6975 142.843 12.9632 142.637 13.3066C142.431 13.65 142.312 14.0379 142.28 14.4696H146.954C146.93 14.0379 146.813 13.6521 146.603 13.3122C146.393 12.973 146.116 12.7067 145.774 12.5137C145.431 12.3208 145.046 12.2247 144.617 12.2247C144.188 12.2247 143.803 12.3194 143.461 12.5081Z" fill="white"></path><path d="M57.9401 35.715H50.9524L49.5752 38.9188H46.8998L53.1884 25.0742H55.744L62.0526 38.9188H59.3373L57.9401 35.715ZM57.0813 33.6977L54.4459 27.6456L51.8304 33.6977H57.0813Z" fill="white"></path><path d="M72.2845 28.9112C73.1033 29.3599 73.7452 29.9924 74.211 30.8099C74.6767 31.6274 74.91 32.5701 74.91 33.6385C74.91 34.7068 74.6767 35.653 74.211 36.4769C73.7452 37.3008 73.1026 37.9375 72.2845 38.3855C71.4657 38.8341 70.5378 39.0581 69.4993 39.0581C68.0621 39.0581 66.9238 38.5833 66.0857 37.6343V42.7572H63.5901V28.3587H65.9659V29.7429C66.3782 29.2419 66.8874 28.866 67.4929 28.6152C68.0985 28.365 68.7675 28.2393 69.4993 28.2393C70.5378 28.2393 71.4657 28.464 72.2845 28.9119V28.9112ZM71.4857 36.0317C72.0777 35.4255 72.3744 34.6277 72.3744 33.6385C72.3744 32.6492 72.0784 31.8521 71.4857 31.2452C70.893 30.6389 70.1384 30.3351 69.2197 30.3351C68.6206 30.3351 68.0821 30.4707 67.6028 30.7407C67.1235 31.0113 66.744 31.3971 66.4652 31.8981C66.1856 32.3991 66.0458 32.9792 66.0458 33.6385C66.0458 34.2977 66.1856 34.8778 66.4652 35.3788C66.7448 35.8798 67.1242 36.2656 67.6028 36.5363C68.0821 36.8069 68.6206 36.9418 69.2197 36.9418C70.1384 36.9418 70.893 36.6387 71.4857 36.0317Z" fill="white"></path><path d="M85.9801 28.9112C86.7989 29.3599 87.4408 29.9924 87.9065 30.8099C88.3723 31.6274 88.6055 32.5701 88.6055 33.6385C88.6055 34.7068 88.3723 35.653 87.9065 36.4769C87.4408 37.3008 86.7982 37.9375 85.9801 38.3855C85.1613 38.8341 84.2333 39.0581 83.1949 39.0581C81.7577 39.0581 80.6193 38.5833 79.7813 37.6343V42.7572H77.2856V28.3587H79.6615V29.7429C80.0737 29.2419 80.583 28.866 81.1885 28.6152C81.794 28.365 82.4631 28.2393 83.1949 28.2393C84.2333 28.2393 85.1613 28.464 85.9801 28.9119V28.9112ZM85.1812 36.0317C85.7732 35.4255 86.0699 34.6277 86.0699 33.6385C86.0699 32.6492 85.7739 31.8521 85.1812 31.2452C84.5885 30.6389 83.8339 30.3351 82.9153 30.3351C82.3161 30.3351 81.7776 30.4707 81.2983 30.7407C80.819 31.0113 80.4396 31.3971 80.1607 31.8981C79.8811 32.3991 79.7413 32.9792 79.7413 33.6385C79.7413 34.2977 79.8811 34.8778 80.1607 35.3788C80.4403 35.8798 80.8198 36.2656 81.2983 36.5363C81.7776 36.8069 82.3161 36.9418 82.9153 36.9418C83.8339 36.9418 84.5885 36.6387 85.1812 36.0317Z" fill="white"></path><path d="M97.9366 38.6609C96.9316 38.3578 96.1364 37.9557 95.5508 37.4548L96.4495 35.4572C97.0215 35.9059 97.724 36.2712 98.5557 36.5545C99.3873 36.8386 100.223 36.9799 101.061 36.9799C102.099 36.9799 102.874 36.8153 103.387 36.4853C103.899 36.156 104.156 35.7207 104.156 35.1802C104.156 34.7845 104.013 34.458 103.727 34.2008C103.441 33.9436 103.078 33.7429 102.639 33.5974C102.2 33.4525 101.601 33.2879 100.842 33.1027C99.7775 32.8526 98.9159 32.6018 98.2568 32.3509C97.5978 32.1008 97.0322 31.7079 96.56 31.1744C96.0871 30.6402 95.8511 29.9188 95.8511 29.0087C95.8511 28.2441 96.0608 27.5481 96.4801 26.922C96.8995 26.296 97.5315 25.7978 98.3766 25.429C99.2218 25.0601 100.256 24.875 101.481 24.875C102.333 24.875 103.172 24.981 103.997 25.1916C104.822 25.4028 105.534 25.706 106.133 26.1017L105.314 28.0993C104.702 27.7431 104.063 27.4732 103.398 27.2881C102.732 27.1036 102.087 27.0111 101.461 27.0111C100.436 27.0111 99.6747 27.1828 99.1755 27.5255C98.6762 27.8682 98.4266 28.3232 98.4266 28.8899C98.4266 29.2857 98.5692 29.6086 98.8559 29.8587C99.142 30.1096 99.505 30.3074 99.9436 30.4523C100.383 30.5978 100.981 30.7625 101.74 30.9469C102.779 31.1843 103.63 31.4316 104.296 31.6888C104.961 31.946 105.53 32.3382 106.003 32.8653C106.475 33.3932 106.712 34.1047 106.712 35.0014C106.712 35.766 106.502 36.4584 106.083 37.0781C105.663 37.6978 105.028 38.1925 104.176 38.5613C103.324 38.9302 102.286 39.1153 101.062 39.1153C99.9836 39.1153 98.9422 38.9634 97.9373 38.6602L97.9366 38.6609Z" fill="white"></path><path d="M115.456 38.345C115.163 38.5824 114.807 38.7605 114.389 38.8792C113.969 38.9979 113.527 39.0573 113.061 39.0573C111.89 39.0573 110.985 38.7541 110.346 38.1472C109.707 37.5409 109.387 36.6576 109.387 35.4967V30.4133H107.631V28.4355H109.387V26.0225H111.883V28.4355H114.738V30.4133H111.883V35.4373C111.883 35.9517 112.009 36.3439 112.262 36.6138C112.515 36.8844 112.882 37.0194 113.36 37.0194C113.919 37.0194 114.385 36.8746 114.757 36.5841L115.456 38.3443V38.345Z" fill="white"></path><path d="M119.03 38.3654C118.164 37.904 117.489 37.261 117.003 36.4371C116.518 35.6132 116.274 34.6804 116.274 33.6382C116.274 32.5959 116.517 31.6675 117.003 30.8492C117.489 30.0317 118.164 29.3922 119.03 28.9308C119.895 28.4693 120.866 28.2383 121.945 28.2383C123.023 28.2383 124.014 28.4693 124.88 28.9308C125.745 29.3922 126.42 30.0317 126.906 30.8492C127.392 31.6667 127.635 32.5966 127.635 33.6382C127.635 34.6797 127.392 35.6132 126.906 36.4371C126.42 37.261 125.745 37.904 124.88 38.3654C124.014 38.8268 123.036 39.0579 121.945 39.0579C120.853 39.0579 119.895 38.8275 119.03 38.3654ZM124.221 36.0315C124.82 35.4252 125.119 34.6274 125.119 33.6382C125.119 32.6489 124.82 31.8519 124.221 31.2449C123.621 30.6386 122.863 30.3348 121.945 30.3348C121.026 30.3348 120.271 30.6379 119.679 31.2449C119.086 31.8512 118.79 32.6489 118.79 33.6382C118.79 34.6274 119.086 35.4252 119.679 36.0315C120.271 36.6377 121.026 36.9416 121.945 36.9416C122.863 36.9416 123.621 36.6384 124.221 36.0315Z" fill="white"></path><path d="M136.198 28.2393V30.593C135.984 30.5534 135.792 30.5336 135.618 30.5336C134.647 30.5336 133.888 30.8141 133.342 31.3745C132.797 31.9348 132.524 32.7425 132.524 33.7974V38.9204H130.028V28.3587H132.404V29.9012C133.123 28.7939 134.387 28.24 136.197 28.24L136.198 28.2393Z" fill="white"></path><path d="M148.197 34.4296H139.832C139.978 35.2076 140.361 35.8237 140.98 36.2788C141.599 36.7338 142.367 36.9614 143.286 36.9614C144.457 36.9614 145.422 36.5791 146.181 35.8145L147.518 37.3373C147.039 37.9047 146.433 38.3329 145.701 38.6226C144.97 38.913 144.144 39.0579 143.226 39.0579C142.055 39.0579 141.023 38.8275 140.131 38.3654C139.239 37.904 138.55 37.261 138.065 36.4371C137.579 35.6132 137.336 34.6804 137.336 33.6382C137.336 32.5959 137.572 31.6837 138.045 30.8591C138.517 30.0352 139.172 29.3922 140.011 28.9308C140.85 28.4693 141.794 28.2383 142.846 28.2383C143.898 28.2383 144.813 28.4658 145.631 28.9209C146.45 29.3759 147.089 30.0154 147.548 30.8393C148.007 31.6632 148.237 32.6164 148.237 33.6975C148.237 33.8692 148.223 34.113 148.197 34.4296ZM140.82 30.9192C140.267 31.3876 139.932 32.0102 139.812 32.7881H145.861C145.754 32.0236 145.428 31.4039 144.883 30.929C144.337 30.4542 143.658 30.2168 142.846 30.2168C142.035 30.2168 141.372 30.4507 140.82 30.9192Z" fill="white"></path></g><defs><clipPath id="clip0_164_9380"><rect width="172.078" height="51.8439" fill="white" transform="translate(0.422485 0.681641)"></rect></clipPath></defs></svg>