<svg xmlns="http://www.w3.org/2000/svg" width="174" height="53" viewBox="0 0 174 53" fill="none"><g clip-path="url(#clip0_164_9409)"><path d="M7.59469 0.681641H166.37C170.041 0.681641 173.021 3.63456 173.021 7.27147V45.9357C173.021 49.5726 170.041 52.5255 166.37 52.5255H7.59469C3.92363 52.5255 0.942993 49.5726 0.942993 45.9357V7.27147C0.942993 3.63456 3.92363 0.681641 7.59469 0.681641Z" fill="black"></path><path d="M54.4555 15.5251H49.7124L48.6725 17.8054H48.0299L51.7915 9.7041H52.3871L56.1487 17.8054H55.5061L54.4548 15.5251H54.4555ZM54.2337 15.0277L52.084 10.3521L49.9464 15.0277H54.2337Z" fill="white"></path><path d="M62.0369 11.7627L59.2795 17.8042H58.684L55.9387 11.7627H56.5578L58.9878 17.1675L61.4414 11.7627H62.0369Z" fill="white"></path><path d="M66.9201 12.2882C67.3252 12.6704 67.5278 13.2315 67.5278 13.972V17.8033H66.9672V16.7271C66.7725 17.0818 66.4879 17.3581 66.1142 17.5545C65.7404 17.751 65.2925 17.8499 64.7704 17.8499C64.0928 17.8499 63.5572 17.6916 63.1642 17.375C62.7705 17.0585 62.5743 16.6423 62.5743 16.1251C62.5743 15.6078 62.7555 15.2164 63.1178 14.904C63.4802 14.5917 64.0586 14.4356 64.8524 14.4356H66.9437V13.9494C66.9437 13.3862 66.7896 12.958 66.4822 12.6648C66.1748 12.3716 65.7247 12.2253 65.1327 12.2253C64.7276 12.2253 64.3403 12.2945 63.9702 12.4337C63.6 12.5729 63.2869 12.7581 63.0294 12.9891L62.7377 12.5722C63.0415 12.3023 63.4074 12.0917 63.8361 11.9412C64.264 11.7907 64.7119 11.7158 65.1798 11.7158C65.9351 11.7158 66.5157 11.9066 66.9208 12.2889L66.9201 12.2882ZM66.1434 17.0274C66.4979 16.7956 66.7646 16.46 66.9437 16.0205V14.8864H64.8638C64.264 14.8864 63.8296 14.9945 63.5615 15.2107C63.2926 15.4269 63.1585 15.7237 63.1585 16.1017C63.1585 16.4798 63.3061 16.8062 63.6021 17.0338C63.8981 17.2613 64.3147 17.375 64.8524 17.375C65.3588 17.375 65.7889 17.2592 66.1434 17.0281V17.0274Z" fill="white"></path><path d="M69.889 10.1613C69.7956 10.0729 69.7485 9.96272 69.7485 9.83129C69.7485 9.69986 69.7956 9.58821 69.889 9.49565C69.9825 9.40308 70.0952 9.35645 70.2278 9.35645C70.3605 9.35645 70.4732 9.40096 70.5666 9.48929C70.6601 9.57832 70.7071 9.68784 70.7071 9.81927C70.7071 9.9507 70.6601 10.0623 70.5666 10.1549C70.4732 10.2475 70.3605 10.2941 70.2278 10.2941C70.0952 10.2941 69.9825 10.2496 69.889 10.1613ZM69.9354 11.7646H70.5195V17.8061H69.9354V11.7646Z" fill="white"></path><path d="M72.9845 9.21582H73.5686V17.8032H72.9845V9.21582Z" fill="white"></path><path d="M79.8294 12.2882C80.2345 12.6704 80.4371 13.2315 80.4371 13.972V17.8033H79.8764V16.7271C79.6817 17.0818 79.3971 17.3581 79.0234 17.5545C78.6497 17.751 78.2018 17.8499 77.6797 17.8499C77.0021 17.8499 76.4664 17.6916 76.0734 17.375C75.6797 17.0585 75.4836 16.6423 75.4836 16.1251C75.4836 15.6078 75.6647 15.2164 76.0271 14.904C76.3894 14.5917 76.9678 14.4356 77.7617 14.4356H79.8529V13.9494C79.8529 13.3862 79.6988 12.958 79.3914 12.6648C79.0833 12.3716 78.634 12.2253 78.042 12.2253C77.6369 12.2253 77.2496 12.2945 76.8794 12.4337C76.5092 12.5729 76.1961 12.7581 75.9393 12.9891L75.6476 12.5722C75.9515 12.3023 76.3174 12.0917 76.746 11.9412C77.174 11.7907 77.6219 11.7158 78.0898 11.7158C78.8451 11.7158 79.4257 11.9066 79.8308 12.2889L79.8294 12.2882ZM79.0526 17.0274C79.4071 16.7956 79.6739 16.46 79.8529 16.0205V14.8864H77.7731C77.1733 14.8864 76.7389 14.9945 76.4707 15.2107C76.2018 15.4269 76.0677 15.7237 76.0677 16.1017C76.0677 16.4798 76.2154 16.8062 76.5114 17.0338C76.8074 17.2613 77.2239 17.375 77.7617 17.375C78.2681 17.375 78.6982 17.2592 79.0526 17.0281V17.0274Z" fill="white"></path><path d="M87.4457 12.1037C87.905 12.3623 88.2652 12.7248 88.5262 13.1919C88.7873 13.659 88.9178 14.1889 88.9178 14.7832C88.9178 15.3774 88.7873 15.906 88.5262 16.3688C88.2652 16.8316 87.905 17.1948 87.4457 17.457C86.9864 17.7191 86.4721 17.8506 85.9037 17.8506C85.3352 17.8506 84.8659 17.7213 84.4258 17.4626C83.9857 17.204 83.6448 16.8437 83.4037 16.3808V17.8046H82.8431V9.21582H83.4273V13.1396C83.6684 12.6923 84.0071 12.3433 84.4437 12.0924C84.8794 11.8416 85.3666 11.7165 85.9037 11.7165C86.4721 11.7165 86.9864 11.8458 87.4457 12.1044V12.1037ZM87.1304 17.0055C87.5042 16.7893 87.798 16.4889 88.0127 16.1024C88.2267 15.7166 88.3337 15.2771 88.3337 14.7832C88.3337 14.2893 88.2267 13.8498 88.0127 13.464C87.7987 13.0781 87.5049 12.7771 87.1304 12.5609C86.7567 12.3447 86.3359 12.2366 85.8687 12.2366C85.4015 12.2366 84.9829 12.3447 84.6127 12.5609C84.2425 12.7771 83.9508 13.0781 83.7368 13.464C83.5229 13.8498 83.4159 14.29 83.4159 14.7832C83.4159 15.2764 83.5229 15.7166 83.7368 16.1024C83.9508 16.4882 84.2432 16.7893 84.6127 17.0055C84.9829 17.2217 85.4015 17.3298 85.8687 17.3298C86.3359 17.3298 86.7567 17.2217 87.1304 17.0055Z" fill="white"></path><path d="M90.7283 9.21582H91.3124V17.8032H90.7283V9.21582Z" fill="white"></path><path d="M98.9298 14.9214H93.6846C93.7003 15.392 93.8208 15.8111 94.0469 16.1771C94.273 16.5438 94.5783 16.8272 94.9641 17.0278C95.35 17.2285 95.7837 17.3288 96.2665 17.3288C96.6638 17.3288 97.0318 17.2575 97.3706 17.1147C97.7094 16.972 97.9919 16.7614 98.218 16.4837L98.5567 16.866C98.2921 17.1826 97.959 17.4257 97.5582 17.5952C97.1574 17.7648 96.723 17.8496 96.2558 17.8496C95.6481 17.8496 95.1068 17.7182 94.6318 17.456C94.1567 17.1939 93.7844 16.8307 93.5163 16.3679C93.2474 15.905 93.1133 15.3765 93.1133 14.7822C93.1133 14.188 93.2395 13.6693 93.4927 13.2023C93.7459 12.7352 94.0947 12.3706 94.5383 12.1084C94.982 11.8463 95.4805 11.7148 96.0333 11.7148C96.5861 11.7148 97.0825 11.8442 97.5225 12.1028C97.9626 12.3614 98.3093 12.7218 98.5625 13.1846C98.8157 13.6474 98.9419 14.1724 98.9419 14.7589L98.9305 14.9207L98.9298 14.9214ZM94.8757 12.5084C94.5326 12.6977 94.258 12.9634 94.0519 13.3068C93.8458 13.6502 93.7267 14.0382 93.6953 14.4699H98.3684C98.3449 14.0382 98.2279 13.6524 98.0182 13.3125C97.8078 12.9733 97.5311 12.7069 97.1887 12.514C96.8457 12.3211 96.4605 12.225 96.0319 12.225C95.6032 12.225 95.2181 12.3197 94.8757 12.5084Z" fill="white"></path><path d="M104.577 17.456C104.114 17.1939 103.75 16.8293 103.485 16.3622C103.221 15.8951 103.088 15.3687 103.088 14.7822C103.088 14.1957 103.221 13.6693 103.485 13.2023C103.75 12.7352 104.115 12.3706 104.577 12.1084C105.041 11.8463 105.56 11.7148 106.137 11.7148C106.714 11.7148 107.234 11.8463 107.697 12.1084C108.161 12.3706 108.525 12.7352 108.79 13.2023C109.054 13.6693 109.187 14.1957 109.187 14.7822C109.187 15.3687 109.054 15.8951 108.79 16.3622C108.525 16.8293 108.161 17.1939 107.697 17.456C107.234 17.7182 106.714 17.8496 106.137 17.8496C105.561 17.8496 105.041 17.7182 104.577 17.456ZM107.393 17.0045C107.762 16.7883 108.055 16.488 108.268 16.1015C108.482 15.7157 108.589 15.2762 108.589 14.7822C108.589 14.2883 108.482 13.8488 108.268 13.463C108.055 13.0772 107.762 12.7762 107.393 12.5599C107.022 12.3437 106.604 12.2356 106.137 12.2356C105.669 12.2356 105.251 12.3437 104.881 12.5599C104.51 12.7762 104.219 13.0772 104.005 13.463C103.791 13.8488 103.684 14.289 103.684 14.7822C103.684 15.2754 103.791 15.7157 104.005 16.1015C104.219 16.4873 104.511 16.7883 104.881 17.0045C105.251 17.2207 105.669 17.3288 106.137 17.3288C106.604 17.3288 107.022 17.2207 107.393 17.0045Z" fill="white"></path><path d="M115.786 12.3758C116.23 12.8153 116.453 13.4484 116.453 14.2737V17.804H115.868V14.3204C115.868 13.6413 115.695 13.1248 115.349 12.7694C115.002 12.4147 114.517 12.2373 113.894 12.2373C113.177 12.2373 112.613 12.4493 112.2 12.874C111.787 13.2986 111.581 13.8696 111.581 14.5868V17.804H110.997V11.7625H111.558V13.0704C111.768 12.6464 112.081 12.3143 112.498 12.0748C112.915 11.8359 113.408 11.7158 113.976 11.7158C114.739 11.7158 115.343 11.9356 115.787 12.3758H115.786Z" fill="white"></path><path d="M124.888 17.4228C124.74 17.562 124.555 17.668 124.333 17.7408C124.112 17.8143 123.88 17.851 123.638 17.851C123.108 17.851 122.699 17.7062 122.411 17.4171C122.123 17.1274 121.979 16.7247 121.979 16.2074V12.261H120.858V11.7636H121.979V10.4443H122.563V11.7636H124.502V12.261H122.563V16.1495C122.563 16.5431 122.659 16.842 122.849 17.0462C123.04 17.2504 123.322 17.3528 123.696 17.3528C124.071 17.3528 124.393 17.2412 124.643 17.0172L124.888 17.4221V17.4228Z" fill="white"></path><path d="M131.3 12.3758C131.744 12.8153 131.967 13.4484 131.967 14.2737V17.8039H131.382V14.3204C131.382 13.6413 131.209 13.1248 130.862 12.7694C130.516 12.4146 130.031 12.2373 129.408 12.2373C128.691 12.2373 128.127 12.4493 127.714 12.8739C127.301 13.2986 127.095 13.8695 127.095 14.5868V17.8039H126.511V9.21582H127.095V13.0237C127.306 12.6068 127.617 12.2853 128.029 12.0571C128.442 11.8296 128.929 11.7158 129.489 11.7158C130.253 11.7158 130.856 11.9356 131.3 12.3758Z" fill="white"></path><path d="M139.536 14.9214H134.291C134.307 15.392 134.427 15.8111 134.653 16.1771C134.879 16.5438 135.185 16.8272 135.571 17.0278C135.956 17.2285 136.39 17.3288 136.873 17.3288C137.27 17.3288 137.638 17.2575 137.977 17.1147C138.316 16.972 138.598 16.7614 138.824 16.4837L139.163 16.866C138.899 17.1826 138.565 17.4257 138.165 17.5952C137.764 17.7648 137.329 17.8496 136.862 17.8496C136.255 17.8496 135.713 17.7182 135.238 17.456C134.763 17.1939 134.391 16.8307 134.123 16.3679C133.854 15.905 133.72 15.3765 133.72 14.7822C133.72 14.188 133.846 13.6693 134.099 13.2023C134.352 12.7352 134.701 12.3706 135.145 12.1084C135.588 11.8463 136.087 11.7148 136.64 11.7148C137.192 11.7148 137.689 11.8442 138.129 12.1028C138.569 12.3614 138.916 12.7218 139.169 13.1846C139.422 13.6474 139.548 14.1724 139.548 14.7589L139.537 14.9207L139.536 14.9214ZM135.482 12.5084C135.139 12.6977 134.864 12.9634 134.658 13.3068C134.452 13.6502 134.333 14.0382 134.302 14.4699H138.975C138.951 14.0382 138.834 13.6524 138.625 13.3125C138.414 12.9733 138.137 12.7069 137.795 12.514C137.452 12.3211 137.067 12.225 136.638 12.225C136.21 12.225 135.824 12.3197 135.482 12.5084Z" fill="white"></path><path d="M57.3358 32.0009H59.7359V37.3938C59.0334 37.9478 58.2138 38.3731 57.2774 38.6692C56.3409 38.9653 55.378 39.1137 54.3894 39.1137C52.9972 39.1137 51.7426 38.8141 50.6242 38.2148C49.5052 37.6156 48.6272 36.7875 47.9902 35.7311C47.3526 34.6747 47.0345 33.4827 47.0345 32.155C47.0345 30.8273 47.3533 29.6359 47.9902 28.5788C48.6272 27.5224 49.5087 26.6943 50.6342 26.0951C51.759 25.4959 53.0243 25.1963 54.4294 25.1963C55.5741 25.1963 56.6148 25.3835 57.5512 25.7566C58.4877 26.1304 59.2744 26.678 59.9121 27.3995L58.3123 28.9456C57.2717 27.9146 56.0163 27.3995 54.5471 27.3995C53.5842 27.3995 52.729 27.5995 51.9815 27.9987C51.2333 28.3979 50.6478 28.959 50.2255 29.6804C49.8026 30.4026 49.5915 31.2265 49.5915 32.1543C49.5915 33.082 49.8026 33.8685 50.2255 34.5899C50.6478 35.3121 51.2333 35.8788 51.9815 36.2908C52.729 36.7034 53.5778 36.909 54.5278 36.909C55.5941 36.909 56.5306 36.6773 57.3373 36.213V31.9995L57.3358 32.0009Z" fill="white"></path><path d="M64.6721 38.3794C63.8262 37.9286 63.1664 37.3005 62.6914 36.4949C62.2164 35.6901 61.9796 34.7779 61.9796 33.7596C61.9796 32.7414 62.2171 31.8334 62.6914 31.0343C63.1657 30.2351 63.8262 29.6104 64.6721 29.1596C65.5173 28.7088 66.4673 28.4834 67.5208 28.4834C68.5743 28.4834 69.5428 28.7088 70.3887 29.1596C71.2339 29.6111 71.8944 30.2358 72.3694 31.0343C72.8437 31.8334 73.0812 32.7421 73.0812 33.7596C73.0812 34.7772 72.8437 35.6894 72.3694 36.4949C71.8944 37.3005 71.2346 37.9286 70.3887 38.3794C69.5428 38.831 68.5871 39.0557 67.5208 39.0557C66.4545 39.0557 65.5173 38.8303 64.6721 38.3794ZM69.7447 36.0985C70.3303 35.5057 70.6227 34.7263 70.6227 33.7596C70.6227 32.793 70.3303 32.0136 69.7447 31.4208C69.1591 30.8279 68.4181 30.5319 67.5208 30.5319C66.6235 30.5319 65.8846 30.8286 65.3062 31.4208C64.727 32.0136 64.4382 32.793 64.4382 33.7596C64.4382 34.7263 64.7277 35.5057 65.3062 36.0985C65.8846 36.6914 66.6228 36.9874 67.5208 36.9874C68.4188 36.9874 69.1598 36.6914 69.7447 36.0985Z" fill="white"></path><path d="M77.2561 38.3794C76.4102 37.9286 75.7505 37.3005 75.2755 36.4949C74.8005 35.6901 74.5637 34.7779 74.5637 33.7596C74.5637 32.7414 74.8012 31.8334 75.2755 31.0343C75.7498 30.2351 76.4102 29.6104 77.2561 29.1596C78.1013 28.7088 79.0514 28.4834 80.1048 28.4834C81.1583 28.4834 82.1269 28.7088 82.9728 29.1596C83.818 29.6111 84.4784 30.2358 84.9535 31.0343C85.4278 31.8334 85.6653 32.7421 85.6653 33.7596C85.6653 34.7772 85.4278 35.6894 84.9535 36.4949C84.4784 37.3005 83.8187 37.9286 82.9728 38.3794C82.1269 38.831 81.1711 39.0557 80.1048 39.0557C79.0385 39.0557 78.1013 38.8303 77.2561 38.3794ZM82.3287 36.0985C82.9143 35.5057 83.2067 34.7263 83.2067 33.7596C83.2067 32.793 82.9143 32.0136 82.3287 31.4208C81.7432 30.8279 81.0021 30.5319 80.1048 30.5319C79.2076 30.5319 78.4687 30.8286 77.8902 31.4208C77.3111 32.0136 77.0222 32.793 77.0222 33.7596C77.0222 34.7263 77.3118 35.5057 77.8902 36.0985C78.4687 36.6914 79.2069 36.9874 80.1048 36.9874C81.0028 36.9874 81.7439 36.6914 82.3287 36.0985Z" fill="white"></path><path d="M98.3469 28.5986V37.3549C98.3469 40.989 96.4739 42.8056 92.728 42.8056C91.7266 42.8056 90.7766 42.6799 89.8793 42.429C88.982 42.1775 88.2403 41.8136 87.6547 41.3366L88.7474 39.5199C89.2024 39.8937 89.778 40.1933 90.4741 40.4187C91.1696 40.6441 91.8757 40.7572 92.591 40.7572C93.7351 40.7572 94.5746 40.4993 95.1081 39.9842C95.6416 39.4683 95.9076 38.6826 95.9076 37.6262V37.0849C95.4911 37.5365 94.984 37.8778 94.3856 38.1095C93.7872 38.3413 93.1303 38.4572 92.4149 38.4572C91.4263 38.4572 90.5319 38.248 89.7324 37.829C88.9328 37.4107 88.3016 36.8207 87.8401 36.0604C87.3787 35.3001 87.1476 34.4302 87.1476 33.4509C87.1476 32.4715 87.3787 31.6052 87.8401 30.8512C88.3016 30.0973 88.9328 29.5143 89.7324 29.1017C90.5326 28.6897 91.4263 28.4834 92.4149 28.4834C93.1688 28.4834 93.8556 28.6063 94.4733 28.8508C95.091 29.096 95.6081 29.4691 96.0246 29.9722V28.6H98.3462L98.3469 28.5986ZM95.0596 35.5862C95.6516 35.0386 95.9476 34.3271 95.9476 33.4501C95.9476 32.5732 95.6516 31.8843 95.0596 31.343C94.4676 30.8018 93.7101 30.5311 92.7865 30.5311C91.8628 30.5311 91.0854 30.8018 90.4941 31.343C89.9021 31.8843 89.6061 32.5867 89.6061 33.4501C89.6061 34.3136 89.9021 35.0386 90.4941 35.5862C91.0854 36.1338 91.85 36.408 92.7865 36.408C93.723 36.408 94.4676 36.1346 95.0596 35.5862Z" fill="white"></path><path d="M101.546 24.5771H103.984V38.9192H101.546V24.5771Z" fill="white"></path><path d="M116.94 34.5327H108.765C108.907 35.293 109.282 35.8957 109.887 36.3402C110.492 36.7846 111.243 37.0072 112.14 37.0072C113.285 37.0072 114.228 36.6334 114.969 35.8858L116.276 37.3739C115.808 37.9279 115.215 38.3469 114.501 38.6303C113.785 38.9136 112.979 39.0557 112.081 39.0557C110.937 39.0557 109.929 38.8303 109.057 38.3794C108.186 37.9286 107.512 37.3005 107.038 36.4949C106.563 35.6901 106.326 34.7779 106.326 33.7596C106.326 32.7414 106.557 31.8497 107.019 31.0441C107.48 30.2386 108.121 29.6104 108.941 29.1596C109.76 28.7088 110.684 28.4834 111.711 28.4834C112.738 28.4834 113.633 28.706 114.433 29.1504C115.232 29.5949 115.857 30.2202 116.306 31.0251C116.755 31.8306 116.979 32.7619 116.979 33.8183C116.979 33.9858 116.966 34.2239 116.94 34.5334V34.5327ZM109.731 31.1021C109.191 31.56 108.863 32.1684 108.746 32.9287H114.658C114.553 32.1818 114.235 31.5755 113.702 31.112C113.168 30.6484 112.505 30.416 111.712 30.416C110.919 30.416 110.271 30.6449 109.731 31.1021H109.731Z" fill="white"></path><path d="M133.65 25.9691C134.528 26.3556 135.201 26.9096 135.669 27.631C136.138 28.3532 136.372 29.2096 136.372 30.2017C136.372 31.1937 136.138 32.0346 135.669 32.7631C135.201 33.4909 134.528 34.0484 133.65 34.4349C132.772 34.8215 131.74 35.0151 130.557 35.0151H127.475V38.9198H124.938V25.3896H130.557C131.74 25.3896 132.772 25.5833 133.65 25.9698V25.9691ZM132.957 32.1929C133.529 31.7286 133.816 31.0651 133.816 30.2017C133.816 29.3382 133.53 28.6747 132.957 28.2104C132.384 27.7462 131.546 27.5144 130.44 27.5144H127.475V32.8882H130.44C131.546 32.8882 132.384 32.6564 132.957 32.1922V32.1929Z" fill="white"></path><path d="M138.869 24.5771H141.307V38.9192H138.869V24.5771Z" fill="white"></path><path d="M152.009 29.5751C152.822 30.3036 153.228 31.4017 153.228 32.8707V38.9207H150.926V37.6644C150.626 38.1159 150.201 38.46 149.648 38.6981C149.095 38.9363 148.428 39.0557 147.648 39.0557C146.868 39.0557 146.184 38.9235 145.599 38.6593C145.014 38.395 144.562 38.0283 144.244 37.5577C143.925 37.0878 143.766 36.5557 143.766 35.9628C143.766 35.0351 144.114 34.291 144.809 33.7307C145.505 33.1703 146.601 32.8898 148.096 32.8898H150.789V32.7351C150.789 32.0136 150.571 31.4596 150.136 31.0731C149.7 30.6866 149.053 30.493 148.194 30.493C147.609 30.493 147.033 30.5834 146.467 30.7636C145.902 30.9445 145.424 31.1954 145.033 31.5176L144.077 29.7588C144.624 29.3469 145.281 29.031 146.048 28.812C146.816 28.5929 147.629 28.4834 148.487 28.4834C150.022 28.4834 151.196 28.8473 152.009 29.5758V29.5751ZM149.785 36.8814C150.26 36.6045 150.594 36.208 150.79 35.6929V34.4945H148.273C146.868 34.4945 146.166 34.9524 146.166 35.8668C146.166 36.3048 146.341 36.6532 146.693 36.9104C147.044 37.1683 147.532 37.2969 148.156 37.2969C148.781 37.2969 149.31 37.1584 149.785 36.8814H149.785Z" fill="white"></path><path d="M165.91 28.5967L161.033 39.7498C160.577 40.8712 160.025 41.6598 159.374 42.1176C158.724 42.5748 157.937 42.8038 157.013 42.8038C156.493 42.8038 155.979 42.7197 155.472 42.5522C154.965 42.3847 154.548 42.153 154.223 41.8562L155.199 40.0777C155.433 40.2967 155.709 40.4705 156.028 40.5998C156.347 40.7284 156.669 40.7934 156.994 40.7934C157.424 40.7934 157.778 40.6839 158.058 40.4649C158.337 40.2458 158.594 39.8784 158.829 39.3633L159.004 38.9577L154.458 28.5974H156.994L160.272 36.2323L163.57 28.5974H165.911L165.91 28.5967Z" fill="white"></path><path d="M42.3485 25.9383L35.7924 22.1904L30.4003 27.3543L35.3281 32.0738L42.3485 28.0595C42.7351 27.8391 42.9662 27.4419 42.9662 26.9996C42.9662 26.5573 42.7351 26.1602 42.3485 25.939V25.9383Z" fill="white"></path><path d="M34.681 21.5543L27.4659 17.4284L11.6547 9.40137L29.5129 26.5034L34.681 21.5543Z" fill="white"></path><path d="M11.9153 45.0549L27.4911 36.5544L34.2149 32.7097L29.511 28.2051L11.9153 45.0549Z" fill="white"></path><path d="M10.5989 10.0938L10.5818 44.6328L28.6233 27.3548L10.5989 10.0938Z" fill="white"></path></g><defs><clipPath id="clip0_164_9409"><rect width="172.078" height="51.8439" fill="white" transform="translate(0.942993 0.681641)"></rect></clipPath></defs></svg>