<svg xmlns="http://www.w3.org/2000/svg" width="132" height="32" viewBox="0 0 132 32" fill="none"><path d="M26.7945 21.4765V10.5237C26.7945 9.67529 26.3317 8.87758 25.5861 8.45972L15.9577 2.98964C15.2121 2.55912 14.2866 2.55912 13.5281 2.98964L3.89977 8.45972C3.15418 8.89024 2.69141 9.67529 2.69141 10.5237V21.4765C2.69141 22.3249 3.15418 23.1226 3.89977 23.5404L13.5281 29.0105C14.2737 29.441 15.1993 29.441 15.9577 29.0105L25.5861 23.5404C26.3317 23.1226 26.7945 22.3375 26.7945 21.4765Z" fill="#197BFD"></path><path d="M8.74685 12.1571L14.7501 8.78898L20.7534 12.2584L23.0287 10.9289L14.7758 6.14258L6.48438 10.7896L8.74685 12.1571Z" fill="white"></path><path d="M14.2353 23.2112L8.30917 19.8304V13.1067L5.98242 11.7266V21.1599L14.2353 25.8576V23.2112Z" fill="white"></path><path d="M21.189 13.1448V19.8305L15.25 23.224V25.8704L23.5029 21.16V11.7646L21.189 13.1448Z" fill="white"></path><path d="M14.7502 13.6006C15.7158 13.6006 16.4985 12.8296 16.4985 11.8786C16.4985 10.9275 15.7158 10.1565 14.7502 10.1565C13.7847 10.1565 13.002 10.9275 13.002 11.8786C13.002 12.8296 13.7847 13.6006 14.7502 13.6006Z" fill="white"></path><path d="M10.9436 20.0203C11.9091 20.0203 12.6919 19.2493 12.6919 18.2982C12.6919 17.3472 11.9091 16.5762 10.9436 16.5762C9.97804 16.5762 9.19531 17.3472 9.19531 18.2982C9.19531 19.2493 9.97804 20.0203 10.9436 20.0203Z" fill="white"></path><path d="M18.6194 20.0711C19.5849 20.0711 20.3676 19.3001 20.3676 18.349C20.3676 17.3979 19.5849 16.627 18.6194 16.627C17.6538 16.627 16.8711 17.3979 16.8711 18.349C16.8711 19.3001 17.6538 20.0711 18.6194 20.0711Z" fill="white"></path><path d="M36.5722 22.445C35.5823 22.445 34.7339 22.2677 34.0398 21.9132C33.3456 21.5586 32.7285 21.0395 32.1758 20.3557L33.577 18.9755C33.9241 19.4694 34.3354 19.8619 34.811 20.1278C35.2867 20.4064 35.9037 20.5457 36.6365 20.5457C37.3306 20.5457 37.8834 20.4064 38.2947 20.1151C38.7061 19.8366 38.9118 19.444 38.9118 18.9502C38.9118 18.5324 38.8089 18.2031 38.5904 17.9372C38.3719 17.684 38.0891 17.4687 37.742 17.2915C37.3949 17.1269 36.9964 16.9622 36.5722 16.8356C36.148 16.6963 35.7238 16.5444 35.2995 16.3798C34.8753 16.2152 34.4897 15.9999 34.1297 15.734C33.7826 15.4808 33.487 15.1389 33.2813 14.721C33.0628 14.3032 32.9599 13.784 32.9599 13.1509C32.9599 12.4165 33.1399 11.7961 33.5127 11.2896C33.8726 10.7704 34.374 10.3905 34.991 10.112C35.6081 9.84607 36.3022 9.70679 37.0735 9.70679C37.8962 9.70679 38.6418 9.87139 39.2974 10.188C39.953 10.5045 40.4801 10.9097 40.8914 11.4035L39.4903 12.7837C39.1303 12.3785 38.7575 12.0873 38.3719 11.8847C37.9862 11.6948 37.5363 11.5935 37.035 11.5935C36.4179 11.5935 35.9294 11.7201 35.5695 11.9607C35.2224 12.2139 35.0424 12.5558 35.0424 12.999C35.0424 13.3788 35.1453 13.6827 35.3638 13.9107C35.5823 14.1386 35.8652 14.3412 36.2122 14.4931C36.5593 14.6577 36.9578 14.797 37.382 14.949C37.8063 15.0882 38.2305 15.2528 38.6547 15.4301C39.0789 15.6074 39.4645 15.8353 39.8245 16.1139C40.1716 16.3924 40.4672 16.747 40.6729 17.1902C40.8914 17.6207 40.9943 18.1778 40.9943 18.8363C40.9943 19.9505 40.5958 20.8242 39.7988 21.47C38.9889 22.1158 37.9219 22.445 36.5722 22.445Z" fill="#EEF0F2"></path><path d="M42.1387 22.4451V13.9615H44.1183V22.4451H42.1387ZM47.8591 22.4451V17.3929C47.8591 16.8231 47.6792 16.3926 47.3192 16.076C46.9593 15.7595 46.5222 15.6075 45.9952 15.6075C45.6352 15.6075 45.3138 15.6835 45.031 15.8228C44.7482 15.9621 44.5297 16.1647 44.3626 16.4306C44.1955 16.6965 44.1055 17.0131 44.1055 17.3929L43.3342 16.9624C43.3342 16.3166 43.4756 15.7595 43.7712 15.2783C44.0541 14.8098 44.4526 14.4426 44.9411 14.1767C45.4295 13.9108 45.9823 13.7842 46.5993 13.7842C47.2035 13.7842 47.7563 13.9108 48.2576 14.1767C48.7461 14.43 49.1318 14.7972 49.4274 15.2783C49.7102 15.7468 49.8645 16.3166 49.8645 16.9751V22.4578H47.8591V22.4451ZM53.5924 22.4451V17.3929C53.5924 16.8231 53.4125 16.3926 53.0525 16.076C52.6926 15.7595 52.2555 15.6075 51.7285 15.6075C51.3814 15.6075 51.06 15.6835 50.7772 15.8228C50.4944 15.9621 50.263 16.1647 50.0959 16.4306C49.9288 16.6965 49.8388 17.0131 49.8388 17.3929L48.7204 16.9624C48.7847 16.3166 48.9775 15.7595 49.2989 15.2783C49.6203 14.8098 50.0316 14.4426 50.5458 14.1767C51.06 13.9108 51.6128 13.7842 52.2298 13.7842C52.8469 13.7842 53.4125 13.9108 53.9138 14.1767C54.4152 14.43 54.8137 14.7972 55.1222 15.2783C55.4178 15.7468 55.5721 16.3166 55.5721 16.9751V22.4578H53.5924V22.4451Z" fill="#EEF0F2"></path><path d="M60.5604 22.4451C59.7762 22.4451 59.082 22.2552 58.4521 21.8627C57.8223 21.4701 57.3209 20.951 56.961 20.2799C56.601 19.6088 56.4082 18.8617 56.4082 18.0387C56.4082 17.203 56.5882 16.4559 56.961 15.7848C57.3209 15.1137 57.8223 14.5819 58.4521 14.1894C59.082 13.7968 59.7891 13.5942 60.5604 13.5942C61.216 13.5942 61.8073 13.7335 62.3086 14.0121C62.8228 14.2907 63.2213 14.6705 63.517 15.1517C63.8127 15.6329 63.9669 16.1773 63.9669 16.7978V19.2416C63.9669 19.8494 63.8255 20.4065 63.5299 20.8877C63.2342 21.3688 62.8357 21.7487 62.3215 22.0273C61.8073 22.3059 61.216 22.4451 60.5604 22.4451ZM60.8817 20.6091C61.6145 20.6091 62.2058 20.3685 62.6557 19.8874C63.1056 19.4062 63.3242 18.7858 63.3242 18.026C63.3242 17.5195 63.2213 17.0764 63.0157 16.6838C62.81 16.2913 62.5272 15.9874 62.1672 15.7721C61.8073 15.5569 61.3702 15.4429 60.8817 15.4429C60.4061 15.4429 59.9819 15.5569 59.6219 15.7721C59.262 15.9874 58.9663 16.2913 58.7607 16.6838C58.555 17.0764 58.4521 17.5195 58.4521 18.026C58.4521 18.5325 58.555 18.9757 58.7607 19.3682C58.9663 19.7607 59.262 20.0646 59.6219 20.2799C59.9819 20.4952 60.4061 20.6091 60.8817 20.6091ZM63.1956 22.2679V19.9887L63.5427 17.9247L63.1956 15.8734V13.7842H65.1753V22.2679H63.1956Z" fill="#EEF0F2"></path><path d="M66.7168 22.4451V13.9614H68.6965V22.4451H66.7168ZM68.6836 17.7221L68.0023 17.3802C68.0023 16.3039 68.2465 15.4429 68.735 14.7718C69.2235 14.1007 69.9562 13.7715 70.9332 13.7715C71.3703 13.7715 71.7559 13.8475 72.103 13.9994C72.4501 14.1513 72.7715 14.4046 73.0672 14.7465L71.7688 16.0507C71.6145 15.8861 71.4346 15.7721 71.2417 15.6961C71.0489 15.6202 70.8304 15.5948 70.5733 15.5948C70.0205 15.5948 69.5706 15.7721 69.2107 16.114C68.8636 16.4559 68.6836 16.9877 68.6836 17.7221Z" fill="#EEF0F2"></path><path d="M73.4141 15.7215V13.9488H79.5202V15.7215H73.4141ZM75.4709 22.4451V10.416H77.4505V22.4451H75.4709Z" fill="#EEF0F2"></path><path d="M87.0414 22.445C86.1287 22.445 85.2932 22.2804 84.5219 21.9638C83.7506 21.6346 83.0821 21.1914 82.5036 20.5963C81.9252 20.0138 81.4881 19.3301 81.1796 18.5577C80.8711 17.7853 80.7168 16.9622 80.7168 16.0759C80.7168 15.1895 80.8711 14.3665 81.1796 13.5941C81.4881 12.8217 81.938 12.1506 82.5036 11.5681C83.0821 10.9857 83.7506 10.5425 84.5219 10.2006C85.2932 9.8714 86.1287 9.70679 87.0414 9.70679C88.057 9.70679 88.944 9.8714 89.6767 10.2006C90.4223 10.5298 91.0779 10.973 91.6564 11.5428L90.2552 12.923C89.8824 12.5178 89.4325 12.2139 88.9054 11.986C88.3784 11.7581 87.7485 11.6441 87.0414 11.6441C86.4244 11.6441 85.8459 11.7454 85.3317 11.9607C84.8175 12.1759 84.3676 12.4798 83.9948 12.8723C83.622 13.2649 83.3264 13.7334 83.1207 14.2779C82.915 14.8223 82.8122 15.4175 82.8122 16.0632C82.8122 16.709 82.915 17.3041 83.1207 17.8486C83.3264 18.3931 83.6092 18.8616 83.9948 19.2541C84.3676 19.6466 84.8175 19.9505 85.3317 20.1658C85.8459 20.3811 86.4115 20.4823 87.0414 20.4823C87.8127 20.4823 88.4555 20.3684 88.9954 20.1405C89.5224 19.9125 89.9852 19.596 90.3452 19.1908L91.7464 20.571C91.1679 21.1534 90.4994 21.5966 89.7153 21.9385C88.9311 22.2804 88.0441 22.445 87.0414 22.445Z" fill="#EEF0F2"></path><path d="M92.6973 22.4451V13.9614H94.6769V22.4451H92.6973ZM94.6769 17.7221L93.9956 17.3802C93.9956 16.3039 94.2399 15.4429 94.7283 14.7718C95.2168 14.1007 95.9496 13.7715 96.9265 13.7715C97.3636 13.7715 97.7493 13.8475 98.0963 13.9994C98.4434 14.1513 98.7648 14.4046 99.0605 14.7465L97.7621 16.0507C97.6079 15.8861 97.4279 15.7721 97.2351 15.6961C97.0422 15.6202 96.8237 15.5948 96.5666 15.5948C96.0138 15.5948 95.5639 15.7721 95.204 16.114C94.8569 16.4559 94.6769 16.9877 94.6769 17.7221Z" fill="#EEF0F2"></path><path d="M103.072 22.4449C102.236 22.4449 101.477 22.2423 100.796 21.8498C100.115 21.4573 99.575 20.9255 99.1765 20.2544C98.7779 19.5833 98.5723 18.8362 98.5723 18.0131C98.5723 17.1901 98.7779 16.443 99.1765 15.7846C99.575 15.1262 100.115 14.5943 100.796 14.2018C101.477 13.8093 102.236 13.6067 103.072 13.6067C103.92 13.6067 104.691 13.7966 105.373 14.1892C106.054 14.5817 106.594 15.1008 106.992 15.7719C107.391 16.443 107.596 17.1901 107.596 18.0131C107.596 18.8362 107.391 19.5833 106.992 20.2544C106.594 20.9255 106.054 21.4573 105.373 21.8498C104.691 22.2423 103.92 22.4449 103.072 22.4449ZM103.072 20.5709C103.56 20.5709 103.997 20.457 104.37 20.2417C104.743 20.0264 105.038 19.7226 105.244 19.33C105.45 18.9375 105.553 18.4943 105.553 18.0005C105.553 17.5067 105.45 17.0635 105.231 16.6963C105.013 16.3164 104.717 16.0252 104.357 15.7973C103.984 15.582 103.56 15.468 103.059 15.468C102.583 15.468 102.146 15.582 101.773 15.7973C101.4 16.0125 101.105 16.3164 100.899 16.6963C100.693 17.0761 100.59 17.5067 100.59 18.0005C100.59 18.4943 100.693 18.9375 100.899 19.33C101.105 19.7226 101.4 20.0264 101.773 20.2417C102.172 20.457 102.596 20.5709 103.072 20.5709Z" fill="#EEF0F2"></path><path d="M110.901 22.4451L107.43 13.9614H109.486L111.826 20.1279L111.222 20.1406L113.497 13.9487H114.641L116.917 20.1406L116.312 20.1279L118.652 13.9614H120.696L117.225 22.4451H116.081L113.741 16.5698H114.384L112.057 22.4451H110.901Z" fill="#EEF0F2"></path><path d="M124.693 22.4451C123.909 22.4451 123.215 22.2551 122.585 21.8626C121.955 21.4701 121.454 20.9509 121.094 20.2798C120.734 19.6087 120.541 18.8616 120.541 18.0386C120.541 17.2029 120.721 16.4558 121.094 15.7847C121.454 15.1136 121.955 14.5818 122.585 14.1893C123.215 13.7967 123.922 13.5942 124.693 13.5942C125.349 13.5942 125.94 13.7334 126.441 14.012C126.956 14.2906 127.354 14.6704 127.65 15.1516C127.945 15.6328 128.1 16.1772 128.1 16.7977V19.2415C128.1 19.8493 127.958 20.4064 127.663 20.8876C127.367 21.3688 126.969 21.7486 126.454 22.0272C125.94 22.3058 125.349 22.4451 124.693 22.4451ZM125.015 20.609C125.503 20.609 125.927 20.4951 126.3 20.2798C126.66 20.0646 126.956 19.7607 127.148 19.3681C127.354 18.9756 127.457 18.5324 127.457 18.0259C127.457 17.5194 127.354 17.0763 127.148 16.6837C126.943 16.2912 126.66 15.9873 126.3 15.7721C125.94 15.5568 125.503 15.4428 125.015 15.4428C124.539 15.4428 124.115 15.5568 123.755 15.7721C123.395 15.9873 123.099 16.2912 122.893 16.6837C122.688 17.0763 122.585 17.5194 122.585 18.0259C122.585 18.5324 122.688 18.9756 122.893 19.3681C123.099 19.7607 123.395 20.0646 123.755 20.2798C124.115 20.4951 124.539 20.609 125.015 20.609ZM129.308 22.2678H127.328V19.9886L127.676 17.9246L127.328 15.8734V9.54224H129.308V22.2678Z" fill="#EEF0F2"></path></svg>